{
	"patcher" : 	{
		"fileversion" : 1,
		"appversion" : 		{
			"major" : 8,
			"minor" : 1,
			"revision" : 5,
			"architecture" : "x64",
			"modernui" : 1
		}
,
		"classnamespace" : "box",
		"rect" : [ 78.0, 78.0, 1209.0, 773.0 ],
		"bglocked" : 0,
		"openinpresentation" : 0,
		"default_fontsize" : 12.0,
		"default_fontface" : 0,
		"default_fontname" : "Arial",
		"gridonopen" : 1,
		"gridsize" : [ 15.0, 15.0 ],
		"gridsnaponopen" : 1,
		"objectsnaponopen" : 1,
		"statusbarvisible" : 2,
		"toolbarvisible" : 1,
		"lefttoolbarpinned" : 0,
		"toptoolbarpinned" : 0,
		"righttoolbarpinned" : 0,
		"bottomtoolbarpinned" : 0,
		"toolbars_unpinned_last_save" : 0,
		"tallnewobj" : 0,
		"boxanimatetime" : 200,
		"enablehscroll" : 1,
		"enablevscroll" : 1,
		"devicewidth" : 0.0,
		"description" : "",
		"digest" : "",
		"tags" : "",
		"style" : "",
		"subpatcher_template" : "",
		"assistshowspatchername" : 0,
		"boxes" : [ 			{
				"box" : 				{
					"id" : "obj-63",
					"maxclass" : "comment",
					"numinlets" : 1,
					"numoutlets" : 0,
					"patching_rect" : [ 898.00001585483551, 145.000001759418524, 150.0, 20.0 ],
					"text" : "29"
				}

			}
, 			{
				"box" : 				{
					"id" : "obj-62",
					"maxclass" : "comment",
					"numinlets" : 1,
					"numoutlets" : 0,
					"patching_rect" : [ 532.00001585483551, 145.000001759418524, 150.0, 20.0 ],
					"text" : "88"
				}

			}
, 			{
				"box" : 				{
					"id" : "obj-61",
					"maxclass" : "comment",
					"numinlets" : 1,
					"numoutlets" : 0,
					"patching_rect" : [ 145.000003308057785, 146.000001759418524, 150.0, 20.0 ],
					"text" : "29"
				}

			}
, 			{
				"box" : 				{
					"id" : "obj-56",
					"maxclass" : "comment",
					"numinlets" : 1,
					"numoutlets" : 0,
					"patching_rect" : [ 927.000003308057785, 33.0, 150.0, 20.0 ],
					"text" : "1000"
				}

			}
, 			{
				"box" : 				{
					"id" : "obj-48",
					"maxclass" : "comment",
					"numinlets" : 1,
					"numoutlets" : 0,
					"patching_rect" : [ 550.000003308057785, 41.0, 150.0, 20.0 ],
					"text" : "1000"
				}

			}
, 			{
				"box" : 				{
					"id" : "obj-47",
					"maxclass" : "comment",
					"numinlets" : 1,
					"numoutlets" : 0,
					"patching_rect" : [ 166.0, 41.0, 150.0, 20.0 ],
					"text" : "1000"
				}

			}
, 			{
				"box" : 				{
					"id" : "obj-80",
					"maxclass" : "comment",
					"numinlets" : 1,
					"numoutlets" : 0,
					"patching_rect" : [ 868.000025868415833, 558.666683316230774, 150.0, 20.0 ],
					"text" : "yawn"
				}

			}
, 			{
				"box" : 				{
					"id" : "obj-78",
					"maxclass" : "comment",
					"numinlets" : 1,
					"numoutlets" : 0,
					"patching_rect" : [ 532.00001585483551, 564.000016808509827, 150.0, 20.0 ],
					"text" : "stress"
				}

			}
, 			{
				"box" : 				{
					"id" : "obj-76",
					"maxclass" : "comment",
					"numinlets" : 1,
					"numoutlets" : 0,
					"patching_rect" : [ 209.000003308057785, 571.0, 150.0, 20.0 ],
					"text" : "success"
				}

			}
, 			{
				"box" : 				{
					"id" : "obj-73",
					"maxclass" : "comment",
					"numinlets" : 1,
					"numoutlets" : 0,
					"patching_rect" : [ 1709.333384275436401, 687.999995589256287, 150.0, 20.0 ],
					"text" : "is that you"
				}

			}
, 			{
				"box" : 				{
					"id" : "obj-72",
					"maxclass" : "comment",
					"numinlets" : 1,
					"numoutlets" : 0,
					"patching_rect" : [ 1478.666710734367371, 692.999995589256287, 150.0, 20.0 ],
					"text" : "brush"
				}

			}
, 			{
				"box" : 				{
					"id" : "obj-71",
					"maxclass" : "comment",
					"numinlets" : 1,
					"numoutlets" : 0,
					"patching_rect" : [ 1233.333370089530945, 694.000020682811737, 150.0, 20.0 ],
					"text" : "femvoice"
				}

			}
, 			{
				"box" : 				{
					"bgmode" : 0,
					"border" : 0,
					"clickthrough" : 0,
					"enablehscroll" : 0,
					"enablevscroll" : 0,
					"extract" : 1,
					"id" : "obj-69",
					"lockeddragscroll" : 0,
					"maxclass" : "bpatcher",
					"name" : "bp.Global Transport.maxpat",
					"numinlets" : 0,
					"numoutlets" : 0,
					"offset" : [ 0.0, 0.0 ],
					"patching_rect" : [ 1486.0, 57.0, 157.0, 116.0 ],
					"varname" : "bp.Global Transport",
					"viewvisibility" : 1
				}

			}
, 			{
				"box" : 				{
					"bgmode" : 0,
					"border" : 0,
					"clickthrough" : 0,
					"enablehscroll" : 0,
					"enablevscroll" : 0,
					"extract" : 1,
					"id" : "obj-68",
					"lockeddragscroll" : 0,
					"maxclass" : "bpatcher",
					"name" : "bp.Cell-MIDI.maxpat",
					"numinlets" : 1,
					"numoutlets" : 2,
					"offset" : [ 0.0, 0.0 ],
					"outlettype" : [ "signal", "signal" ],
					"patching_rect" : [ 1694.333332777023315, 569.999995589256287, 217.0, 116.0 ],
					"varname" : "bp.Cell-MIDI[2]",
					"viewvisibility" : 1
				}

			}
, 			{
				"box" : 				{
					"bgmode" : 0,
					"border" : 0,
					"clickthrough" : 0,
					"enablehscroll" : 0,
					"enablevscroll" : 0,
					"extract" : 1,
					"id" : "obj-67",
					"lockeddragscroll" : 0,
					"maxclass" : "bpatcher",
					"name" : "bp.LPF.maxpat",
					"numinlets" : 5,
					"numoutlets" : 1,
					"offset" : [ 0.0, 0.0 ],
					"outlettype" : [ "signal" ],
					"patching_rect" : [ 1214.0, 873.0, 304.0, 116.0 ],
					"varname" : "bp.LPF",
					"viewvisibility" : 1
				}

			}
, 			{
				"box" : 				{
					"bgmode" : 0,
					"border" : 0,
					"clickthrough" : 0,
					"enablehscroll" : 0,
					"enablevscroll" : 0,
					"extract" : 1,
					"id" : "obj-65",
					"lockeddragscroll" : 0,
					"maxclass" : "bpatcher",
					"name" : "bp.Audio Mixer.maxpat",
					"numinlets" : 4,
					"numoutlets" : 1,
					"offset" : [ 0.0, 0.0 ],
					"outlettype" : [ "signal" ],
					"patching_rect" : [ 1218.333332777023315, 733.0, 201.0, 116.0 ],
					"varname" : "bp.Audio Mixer",
					"viewvisibility" : 1
				}

			}
, 			{
				"box" : 				{
					"bgmode" : 0,
					"border" : 0,
					"clickthrough" : 0,
					"enablehscroll" : 0,
					"enablevscroll" : 0,
					"extract" : 1,
					"id" : "obj-49",
					"lockeddragscroll" : 0,
					"maxclass" : "bpatcher",
					"name" : "bp.Cell-MIDI.maxpat",
					"numinlets" : 1,
					"numoutlets" : 2,
					"offset" : [ 0.0, 0.0 ],
					"outlettype" : [ "signal", "signal" ],
					"patching_rect" : [ 1458.333332777023315, 574.999995589256287, 217.0, 116.0 ],
					"varname" : "bp.Cell-MIDI[1]",
					"viewvisibility" : 1
				}

			}
, 			{
				"box" : 				{
					"bgmode" : 0,
					"border" : 0,
					"clickthrough" : 0,
					"enablehscroll" : 0,
					"enablevscroll" : 0,
					"extract" : 1,
					"id" : "obj-57",
					"lockeddragscroll" : 0,
					"maxclass" : "bpatcher",
					"name" : "bp.Metro Pulse.maxpat",
					"numinlets" : 0,
					"numoutlets" : 1,
					"offset" : [ 0.0, 0.0 ],
					"outlettype" : [ "" ],
					"patching_rect" : [ 1200.0, 57.0, 232.0, 116.0 ],
					"varname" : "bp.Metro Pulse",
					"viewvisibility" : 1
				}

			}
, 			{
				"box" : 				{
					"bgmode" : 0,
					"border" : 0,
					"clickthrough" : 0,
					"enablehscroll" : 0,
					"enablevscroll" : 0,
					"extract" : 1,
					"id" : "obj-53",
					"lockeddragscroll" : 0,
					"maxclass" : "bpatcher",
					"name" : "bp.Cell-MIDI.maxpat",
					"numinlets" : 1,
					"numoutlets" : 2,
					"offset" : [ 0.0, 0.0 ],
					"outlettype" : [ "signal", "signal" ],
					"patching_rect" : [ 1218.333332777023315, 574.999995589256287, 217.0, 116.0 ],
					"varname" : "bp.Cell-MIDI",
					"viewvisibility" : 1
				}

			}
, 			{
				"box" : 				{
					"id" : "obj-52",
					"maxclass" : "jit.pwindow",
					"numinlets" : 1,
					"numoutlets" : 2,
					"outlettype" : [ "jit_matrix", "" ],
					"patching_rect" : [ 70.670000596046449, 950.669999403953511, 518.666679739952201, 212.000004529953117 ]
				}

			}
, 			{
				"box" : 				{
					"bgmode" : 0,
					"border" : 0,
					"clickthrough" : 0,
					"enablehscroll" : 0,
					"enablevscroll" : 0,
					"extract" : 1,
					"id" : "obj-51",
					"lockeddragscroll" : 0,
					"maxclass" : "bpatcher",
					"name" : "bp.Drum Sequencer.maxpat",
					"numinlets" : 7,
					"numoutlets" : 3,
					"offset" : [ 0.0, 0.0 ],
					"outlettype" : [ "", "", "" ],
					"patching_rect" : [ 1218.333332777023315, 220.000001907348633, 617.909545999999978, 327.909576000000015 ],
					"varname" : "bp.Drum Sequencer",
					"viewvisibility" : 1
				}

			}
, 			{
				"box" : 				{
					"bgmode" : 0,
					"border" : 0,
					"clickthrough" : 0,
					"enablehscroll" : 0,
					"enablevscroll" : 0,
					"extract" : 1,
					"id" : "obj-46",
					"lockeddragscroll" : 0,
					"maxclass" : "bpatcher",
					"name" : "bp.Stereo.maxpat",
					"numinlets" : 2,
					"numoutlets" : 0,
					"offset" : [ 0.0, 0.0 ],
					"patching_rect" : [ 1218.333332777023315, 1024.333335355464897, 148.0, 116.0 ],
					"varname" : "bp.Stereo",
					"viewvisibility" : 1
				}

			}
, 			{
				"box" : 				{
					"bubble" : 1,
					"bubbleside" : 2,
					"id" : "obj-60",
					"linecount" : 6,
					"maxclass" : "comment",
					"numinlets" : 1,
					"numoutlets" : 0,
					"patching_rect" : [ 606.666674196720123, 231.541665569488543, 228.0, 106.0 ],
					"text" : "loadmess will output any messages that you write into the object, when you open the patch ~~~~ unpack takes a list of messages and seperates them into individual messages that will be sent out of each output you create "
				}

			}
, 			{
				"box" : 				{
					"bubble" : 1,
					"id" : "obj-45",
					"linecount" : 3,
					"maxclass" : "comment",
					"numinlets" : 1,
					"numoutlets" : 0,
					"patching_rect" : [ 189.000003308057785, 779.333336189929923, 175.0, 51.0 ],
					"text" : "adds the composite video and the third video together for the final output"
				}

			}
, 			{
				"box" : 				{
					"bubble" : 1,
					"id" : "obj-42",
					"linecount" : 3,
					"maxclass" : "comment",
					"numinlets" : 1,
					"numoutlets" : 0,
					"patching_rect" : [ 189.000003308057785, 635.333336189929923, 170.0, 51.0 ],
					"text" : "adds the first and the second video together into one composit video"
				}

			}
, 			{
				"box" : 				{
					"bubble" : 1,
					"fontface" : 1,
					"fontname" : "Arial",
					"id" : "obj-18",
					"maxclass" : "comment",
					"numinlets" : 1,
					"numoutlets" : 0,
					"patching_rect" : [ 189.000003308057785, 750.333336189929923, 156.0, 24.0 ],
					"text" : "set the operation to +",
					"textcolor" : [ 1.0, 0.0, 0.0, 1.0 ]
				}

			}
, 			{
				"box" : 				{
					"bubble" : 1,
					"fontface" : 1,
					"fontname" : "Arial",
					"id" : "obj-9",
					"maxclass" : "comment",
					"numinlets" : 1,
					"numoutlets" : 0,
					"patching_rect" : [ 189.000003308057785, 599.333336189929923, 156.0, 24.0 ],
					"text" : "set the operation to +",
					"textcolor" : [ 1.0, 0.0, 0.0, 1.0 ]
				}

			}
, 			{
				"box" : 				{
					"annotation" : "## Combine two videos using math operations ##",
					"bgmode" : 1,
					"border" : 0,
					"clickthrough" : 0,
					"enablehscroll" : 0,
					"enablevscroll" : 0,
					"id" : "obj-44",
					"lockeddragscroll" : 0,
					"maxclass" : "bpatcher",
					"name" : "vz.oper8r.maxpat",
					"numinlets" : 3,
					"numoutlets" : 1,
					"offset" : [ 0.0, 0.0 ],
					"outlettype" : [ "" ],
					"patching_rect" : [ 70.500003308057785, 716.0, 118.0, 130.0 ],
					"varname" : "oper8r[1]",
					"viewvisibility" : 1
				}

			}
, 			{
				"box" : 				{
					"annotation" : "## Combine two videos using math operations ##",
					"bgmode" : 1,
					"border" : 0,
					"clickthrough" : 0,
					"enablehscroll" : 0,
					"enablevscroll" : 0,
					"id" : "obj-43",
					"lockeddragscroll" : 0,
					"maxclass" : "bpatcher",
					"name" : "vz.oper8r.maxpat",
					"numinlets" : 3,
					"numoutlets" : 1,
					"offset" : [ 0.0, 0.0 ],
					"outlettype" : [ "" ],
					"patching_rect" : [ 70.500003308057785, 571.0, 118.0, 130.0 ],
					"varname" : "oper8r",
					"viewvisibility" : 1
				}

			}
, 			{
				"box" : 				{
					"bubble" : 1,
					"id" : "obj-40",
					"maxclass" : "comment",
					"numinlets" : 1,
					"numoutlets" : 0,
					"patching_rect" : [ 152.000003308057785, 8.000001759418524, 136.0, 24.0 ],
					"text" : "turn all 3 metros on"
				}

			}
, 			{
				"box" : 				{
					"id" : "obj-39",
					"maxclass" : "toggle",
					"numinlets" : 1,
					"numoutlets" : 1,
					"outlettype" : [ "int" ],
					"parameter_enable" : 0,
					"patching_rect" : [ 126.000003308057785, 8.0, 24.0, 24.0 ]
				}

			}
, 			{
				"box" : 				{
					"angle" : 270.0,
					"bgcolor" : [ 1.0, 0.0, 0.0, 1.0 ],
					"id" : "obj-36",
					"maxclass" : "panel",
					"mode" : 0,
					"numinlets" : 1,
					"numoutlets" : 0,
					"patching_rect" : [ 32.500003308057785, 283.416665569488543, 4.0, 538.0 ],
					"proportion" : 0.5
				}

			}
, 			{
				"box" : 				{
					"bubble" : 1,
					"bubbleside" : 2,
					"fontface" : 1,
					"id" : "obj-35",
					"linecount" : 4,
					"maxclass" : "comment",
					"numinlets" : 1,
					"numoutlets" : 0,
					"patching_rect" : [ 6.000003308057785, 203.416665569488543, 57.0, 79.0 ],
					"text" : "FIRST: turn on the jit.world",
					"textcolor" : [ 1.0, 0.0, 0.0, 1.0 ]
				}

			}
, 			{
				"box" : 				{
					"bubble" : 1,
					"bubbleside" : 2,
					"id" : "obj-34",
					"linecount" : 6,
					"maxclass" : "comment",
					"numinlets" : 1,
					"numoutlets" : 0,
					"patching_rect" : [ 44.000003308057785, 60.000001759418524, 73.0, 106.0 ],
					"text" : "read in a HAP encoded video file for each jit.movie"
				}

			}
, 			{
				"box" : 				{
					"bubble" : 1,
					"id" : "obj-33",
					"linecount" : 3,
					"maxclass" : "comment",
					"numinlets" : 1,
					"numoutlets" : 0,
					"patching_rect" : [ 215.000003308057785, 148.33333618992998, 235.0, 51.0 ],
					"text" : "puts the word frame in front of the number so that jit.movie understands it as a message to jump to that frame"
				}

			}
, 			{
				"box" : 				{
					"bubble" : 1,
					"id" : "obj-32",
					"linecount" : 2,
					"maxclass" : "comment",
					"numinlets" : 1,
					"numoutlets" : 0,
					"patching_rect" : [ 222.000003308057785, 49.500001759418524, 250.0, 37.0 ],
					"text" : "this number sets the interval for the metro to bang the frame number, change it!"
				}

			}
, 			{
				"box" : 				{
					"bubble" : 1,
					"id" : "obj-30",
					"maxclass" : "comment",
					"numinlets" : 1,
					"numoutlets" : 0,
					"patching_rect" : [ 178.000003308057785, 120.000001759418524, 291.0, 24.0 ],
					"text" : "this number sets the frame to jump to, change it!"
				}

			}
, 			{
				"box" : 				{
					"id" : "obj-16",
					"maxclass" : "number",
					"numinlets" : 1,
					"numoutlets" : 2,
					"outlettype" : [ "", "bang" ],
					"parameter_enable" : 0,
					"patching_rect" : [ 927.000003308057785, 57.000001759418524, 50.0, 22.0 ]
				}

			}
, 			{
				"box" : 				{
					"id" : "obj-23",
					"maxclass" : "newobj",
					"numinlets" : 2,
					"numoutlets" : 1,
					"outlettype" : [ "bang" ],
					"patching_rect" : [ 883.000003308057785, 89.000001759418524, 63.0, 22.0 ],
					"text" : "metro 200"
				}

			}
, 			{
				"box" : 				{
					"id" : "obj-26",
					"maxclass" : "number",
					"numinlets" : 1,
					"numoutlets" : 2,
					"outlettype" : [ "", "bang" ],
					"parameter_enable" : 0,
					"patching_rect" : [ 883.000003308057785, 121.000001759418524, 50.0, 22.0 ]
				}

			}
, 			{
				"box" : 				{
					"id" : "obj-28",
					"maxclass" : "newobj",
					"numinlets" : 1,
					"numoutlets" : 1,
					"outlettype" : [ "" ],
					"patching_rect" : [ 883.000003308057785, 162.83333618992998, 87.0, 22.0 ],
					"text" : "prepend frame"
				}

			}
, 			{
				"box" : 				{
					"id" : "obj-29",
					"maxclass" : "message",
					"numinlets" : 2,
					"numoutlets" : 1,
					"outlettype" : [ "" ],
					"patching_rect" : [ 827.500003308057785, 162.83333618992998, 33.0, 22.0 ],
					"text" : "read"
				}

			}
, 			{
				"box" : 				{
					"id" : "obj-8",
					"maxclass" : "number",
					"numinlets" : 1,
					"numoutlets" : 2,
					"outlettype" : [ "", "bang" ],
					"parameter_enable" : 0,
					"patching_rect" : [ 550.000003308057785, 57.000001759418524, 50.0, 22.0 ]
				}

			}
, 			{
				"box" : 				{
					"id" : "obj-11",
					"maxclass" : "newobj",
					"numinlets" : 2,
					"numoutlets" : 1,
					"outlettype" : [ "bang" ],
					"patching_rect" : [ 506.000003308057785, 89.000001759418524, 63.0, 22.0 ],
					"text" : "metro 200"
				}

			}
, 			{
				"box" : 				{
					"id" : "obj-13",
					"maxclass" : "number",
					"numinlets" : 1,
					"numoutlets" : 2,
					"outlettype" : [ "", "bang" ],
					"parameter_enable" : 0,
					"patching_rect" : [ 506.000003308057785, 121.000001759418524, 50.0, 22.0 ]
				}

			}
, 			{
				"box" : 				{
					"id" : "obj-14",
					"maxclass" : "newobj",
					"numinlets" : 1,
					"numoutlets" : 1,
					"outlettype" : [ "" ],
					"patching_rect" : [ 506.000003308057785, 162.83333618992998, 87.0, 22.0 ],
					"text" : "prepend frame"
				}

			}
, 			{
				"box" : 				{
					"id" : "obj-15",
					"maxclass" : "message",
					"numinlets" : 2,
					"numoutlets" : 1,
					"outlettype" : [ "" ],
					"patching_rect" : [ 450.500003308057785, 162.83333618992998, 33.0, 22.0 ],
					"text" : "read"
				}

			}
, 			{
				"box" : 				{
					"id" : "obj-27",
					"maxclass" : "number",
					"numinlets" : 1,
					"numoutlets" : 2,
					"outlettype" : [ "", "bang" ],
					"parameter_enable" : 0,
					"patching_rect" : [ 170.000003308057785, 57.000001759418524, 50.0, 22.0 ]
				}

			}
, 			{
				"box" : 				{
					"id" : "obj-25",
					"maxclass" : "newobj",
					"numinlets" : 1,
					"numoutlets" : 1,
					"outlettype" : [ "" ],
					"patching_rect" : [ 861.400003308057876, 328.0, 207.0, 22.0 ],
					"text" : "loadmess 0.33 0. 0.66 1. 0.66 0. 1. 1."
				}

			}
, 			{
				"box" : 				{
					"id" : "obj-24",
					"maxclass" : "newobj",
					"numinlets" : 1,
					"numoutlets" : 1,
					"outlettype" : [ "" ],
					"patching_rect" : [ 484.400003308057876, 328.0, 221.0, 22.0 ],
					"text" : "loadmess 0.33 0. 0.66 1. 0.33 0. 0.66 1."
				}

			}
, 			{
				"box" : 				{
					"id" : "obj-19",
					"maxclass" : "newobj",
					"numinlets" : 1,
					"numoutlets" : 1,
					"outlettype" : [ "" ],
					"patching_rect" : [ 104.400003308057791, 328.0, 207.0, 22.0 ],
					"text" : "loadmess 0.33 0. 0.66 1. 0. 0. 0.33 1."
				}

			}
, 			{
				"box" : 				{
					"id" : "obj-55",
					"maxclass" : "newobj",
					"numinlets" : 2,
					"numoutlets" : 1,
					"outlettype" : [ "bang" ],
					"patching_rect" : [ 126.000003308057785, 89.000001759418524, 63.0, 22.0 ],
					"text" : "metro 200"
				}

			}
, 			{
				"box" : 				{
					"id" : "obj-54",
					"maxclass" : "number",
					"numinlets" : 1,
					"numoutlets" : 2,
					"outlettype" : [ "", "bang" ],
					"parameter_enable" : 0,
					"patching_rect" : [ 126.000003308057785, 121.000001759418524, 50.0, 22.0 ]
				}

			}
, 			{
				"box" : 				{
					"id" : "obj-50",
					"maxclass" : "newobj",
					"numinlets" : 1,
					"numoutlets" : 1,
					"outlettype" : [ "" ],
					"patching_rect" : [ 126.000003308057785, 162.83333618992998, 87.0, 22.0 ],
					"text" : "prepend frame"
				}

			}
, 			{
				"box" : 				{
					"id" : "obj-41",
					"maxclass" : "newobj",
					"numinlets" : 1,
					"numoutlets" : 8,
					"outlettype" : [ "float", "float", "float", "float", "float", "float", "float", "float" ],
					"patching_rect" : [ 861.400003308057876, 359.0, 256.299999999999955, 22.0 ],
					"text" : "unpack 0. 0. 0. 0. 0. 0. 0. 0."
				}

			}
, 			{
				"box" : 				{
					"id" : "obj-37",
					"maxclass" : "newobj",
					"numinlets" : 1,
					"numoutlets" : 8,
					"outlettype" : [ "float", "float", "float", "float", "float", "float", "float", "float" ],
					"patching_rect" : [ 484.400003308057876, 359.0, 256.299999999999955, 22.0 ],
					"text" : "unpack 0. 0. 0. 0. 0. 0. 0. 0."
				}

			}
, 			{
				"box" : 				{
					"id" : "obj-31",
					"maxclass" : "newobj",
					"numinlets" : 1,
					"numoutlets" : 8,
					"outlettype" : [ "float", "float", "float", "float", "float", "float", "float", "float" ],
					"patching_rect" : [ 104.400003308057791, 359.0, 256.299999999999955, 22.0 ],
					"text" : "unpack 0. 0. 0. 0. 0. 0. 0. 0."
				}

			}
, 			{
				"box" : 				{
					"annotation" : "## Grab a portion of a video and modify it ##",
					"bgmode" : 1,
					"border" : 0,
					"clickthrough" : 0,
					"enablehscroll" : 0,
					"enablevscroll" : 0,
					"id" : "obj-21",
					"lockeddragscroll" : 0,
					"maxclass" : "bpatcher",
					"name" : "vz.croppr.maxpat",
					"numinlets" : 12,
					"numoutlets" : 1,
					"offset" : [ 0.0, 0.0 ],
					"outlettype" : [ "" ],
					"patching_rect" : [ 827.500003308057785, 395.0, 358.0, 162.0 ],
					"prototypename" : "pixl",
					"varname" : "croppr[2]",
					"viewvisibility" : 1
				}

			}
, 			{
				"box" : 				{
					"annotation" : "## Grab a portion of a video and modify it ##",
					"bgmode" : 1,
					"border" : 0,
					"clickthrough" : 0,
					"enablehscroll" : 0,
					"enablevscroll" : 0,
					"id" : "obj-20",
					"lockeddragscroll" : 0,
					"maxclass" : "bpatcher",
					"name" : "vz.croppr.maxpat",
					"numinlets" : 12,
					"numoutlets" : 1,
					"offset" : [ 0.0, 0.0 ],
					"outlettype" : [ "" ],
					"patching_rect" : [ 450.500003308057785, 395.0, 358.0, 162.0 ],
					"prototypename" : "pixl",
					"varname" : "croppr[1]",
					"viewvisibility" : 1
				}

			}
, 			{
				"box" : 				{
					"annotation" : "## Grab a portion of a video and modify it ##",
					"bgmode" : 1,
					"border" : 0,
					"clickthrough" : 0,
					"enablehscroll" : 0,
					"enablevscroll" : 0,
					"id" : "obj-22",
					"lockeddragscroll" : 0,
					"maxclass" : "bpatcher",
					"name" : "vz.croppr.maxpat",
					"numinlets" : 12,
					"numoutlets" : 1,
					"offset" : [ 0.0, 0.0 ],
					"outlettype" : [ "" ],
					"patching_rect" : [ 70.500003308057785, 395.0, 358.0, 162.0 ],
					"prototypename" : "pixl",
					"varname" : "croppr",
					"viewvisibility" : 1
				}

			}
, 			{
				"box" : 				{
					"id" : "obj-12",
					"maxclass" : "jit.pwindow",
					"numinlets" : 1,
					"numoutlets" : 2,
					"outlettype" : [ "jit_matrix", "" ],
					"patching_rect" : [ 865.666674196720123, 235.666665569488543, 113.0, 84.75 ]
				}

			}
, 			{
				"box" : 				{
					"id" : "obj-17",
					"maxclass" : "newobj",
					"numinlets" : 1,
					"numoutlets" : 2,
					"outlettype" : [ "jit_gl_texture", "" ],
					"patching_rect" : [ 827.500003308057785, 201.33333618992998, 230.0, 22.0 ],
					"text" : "jit.movie @engine hap @output_texture 1"
				}

			}
, 			{
				"box" : 				{
					"id" : "obj-7",
					"maxclass" : "jit.pwindow",
					"numinlets" : 1,
					"numoutlets" : 2,
					"outlettype" : [ "jit_matrix", "" ],
					"patching_rect" : [ 488.666674196720123, 235.666665569488543, 113.0, 84.75 ]
				}

			}
, 			{
				"box" : 				{
					"id" : "obj-10",
					"maxclass" : "newobj",
					"numinlets" : 1,
					"numoutlets" : 2,
					"outlettype" : [ "jit_gl_texture", "" ],
					"patching_rect" : [ 450.500003308057785, 201.33333618992998, 230.0, 22.0 ],
					"text" : "jit.movie @engine hap @output_texture 1"
				}

			}
, 			{
				"box" : 				{
					"id" : "obj-3",
					"maxclass" : "jit.pwindow",
					"numinlets" : 1,
					"numoutlets" : 2,
					"outlettype" : [ "jit_matrix", "" ],
					"patching_rect" : [ 108.666674196720123, 235.666665569488543, 113.0, 84.75 ]
				}

			}
, 			{
				"box" : 				{
					"id" : "obj-4",
					"maxclass" : "toggle",
					"numinlets" : 1,
					"numoutlets" : 1,
					"outlettype" : [ "int" ],
					"parameter_enable" : 0,
					"patching_rect" : [ 22.500003308057785, 825.000001759418524, 24.0, 24.0 ]
				}

			}
, 			{
				"box" : 				{
					"fontface" : 0,
					"fontname" : "Arial",
					"fontsize" : 12.0,
					"id" : "obj-6",
					"maxclass" : "jit.fpsgui",
					"numinlets" : 1,
					"numoutlets" : 2,
					"outlettype" : [ "", "" ],
					"patching_rect" : [ 227.000003308057785, 886.333355247974396, 80.0, 35.0 ]
				}

			}
, 			{
				"box" : 				{
					"id" : "obj-2",
					"maxclass" : "newobj",
					"numinlets" : 1,
					"numoutlets" : 3,
					"outlettype" : [ "jit_matrix", "bang", "" ],
					"patching_rect" : [ 70.500003308057785, 860.0, 332.0, 22.0 ],
					"text" : "jit.world gransynth @dim 1920 1080 @erase_color 0. 0. 0. 1."
				}

			}
, 			{
				"box" : 				{
					"id" : "obj-1",
					"maxclass" : "newobj",
					"numinlets" : 1,
					"numoutlets" : 2,
					"outlettype" : [ "jit_gl_texture", "" ],
					"patching_rect" : [ 70.500003308057785, 201.33333618992998, 230.0, 22.0 ],
					"text" : "jit.movie @engine hap @output_texture 1"
				}

			}
, 			{
				"box" : 				{
					"id" : "obj-5",
					"maxclass" : "message",
					"numinlets" : 2,
					"numoutlets" : 1,
					"outlettype" : [ "" ],
					"patching_rect" : [ 70.500003308057785, 168.000001759418524, 33.0, 22.0 ],
					"text" : "read"
				}

			}
, 			{
				"box" : 				{
					"angle" : 270.0,
					"bgcolor" : [ 1.0, 0.0, 0.0, 1.0 ],
					"id" : "obj-59",
					"maxclass" : "panel",
					"mode" : 0,
					"numinlets" : 1,
					"numoutlets" : 0,
					"patching_rect" : [ 15.500003308057785, 815.708334544162881, 38.0, 42.583334430511457 ],
					"proportion" : 0.5
				}

			}
 ],
		"lines" : [ 			{
				"patchline" : 				{
					"destination" : [ "obj-22", 0 ],
					"order" : 1,
					"source" : [ "obj-1", 0 ]
				}

			}
, 			{
				"patchline" : 				{
					"destination" : [ "obj-3", 0 ],
					"order" : 0,
					"source" : [ "obj-1", 0 ]
				}

			}
, 			{
				"patchline" : 				{
					"destination" : [ "obj-20", 0 ],
					"order" : 1,
					"source" : [ "obj-10", 0 ]
				}

			}
, 			{
				"patchline" : 				{
					"destination" : [ "obj-7", 0 ],
					"order" : 0,
					"source" : [ "obj-10", 0 ]
				}

			}
, 			{
				"patchline" : 				{
					"destination" : [ "obj-13", 0 ],
					"source" : [ "obj-11", 0 ]
				}

			}
, 			{
				"patchline" : 				{
					"destination" : [ "obj-14", 0 ],
					"source" : [ "obj-13", 0 ]
				}

			}
, 			{
				"patchline" : 				{
					"destination" : [ "obj-10", 0 ],
					"source" : [ "obj-14", 0 ]
				}

			}
, 			{
				"patchline" : 				{
					"destination" : [ "obj-10", 0 ],
					"source" : [ "obj-15", 0 ]
				}

			}
, 			{
				"patchline" : 				{
					"destination" : [ "obj-23", 1 ],
					"source" : [ "obj-16", 0 ]
				}

			}
, 			{
				"patchline" : 				{
					"destination" : [ "obj-12", 0 ],
					"order" : 0,
					"source" : [ "obj-17", 0 ]
				}

			}
, 			{
				"patchline" : 				{
					"destination" : [ "obj-21", 0 ],
					"order" : 1,
					"source" : [ "obj-17", 0 ]
				}

			}
, 			{
				"patchline" : 				{
					"destination" : [ "obj-31", 0 ],
					"source" : [ "obj-19", 0 ]
				}

			}
, 			{
				"patchline" : 				{
					"destination" : [ "obj-6", 0 ],
					"source" : [ "obj-2", 1 ]
				}

			}
, 			{
				"patchline" : 				{
					"destination" : [ "obj-43", 1 ],
					"source" : [ "obj-20", 0 ]
				}

			}
, 			{
				"patchline" : 				{
					"destination" : [ "obj-44", 1 ],
					"midpoints" : [ 837.000003308057785, 708.0, 129.500003308057785, 708.0 ],
					"source" : [ "obj-21", 0 ]
				}

			}
, 			{
				"patchline" : 				{
					"destination" : [ "obj-43", 0 ],
					"source" : [ "obj-22", 0 ]
				}

			}
, 			{
				"patchline" : 				{
					"destination" : [ "obj-26", 0 ],
					"source" : [ "obj-23", 0 ]
				}

			}
, 			{
				"patchline" : 				{
					"destination" : [ "obj-37", 0 ],
					"source" : [ "obj-24", 0 ]
				}

			}
, 			{
				"patchline" : 				{
					"destination" : [ "obj-41", 0 ],
					"source" : [ "obj-25", 0 ]
				}

			}
, 			{
				"patchline" : 				{
					"destination" : [ "obj-28", 0 ],
					"source" : [ "obj-26", 0 ]
				}

			}
, 			{
				"patchline" : 				{
					"destination" : [ "obj-55", 1 ],
					"source" : [ "obj-27", 0 ]
				}

			}
, 			{
				"patchline" : 				{
					"destination" : [ "obj-17", 0 ],
					"source" : [ "obj-28", 0 ]
				}

			}
, 			{
				"patchline" : 				{
					"destination" : [ "obj-17", 0 ],
					"source" : [ "obj-29", 0 ]
				}

			}
, 			{
				"patchline" : 				{
					"destination" : [ "obj-22", 8 ],
					"source" : [ "obj-31", 7 ]
				}

			}
, 			{
				"patchline" : 				{
					"destination" : [ "obj-22", 7 ],
					"source" : [ "obj-31", 6 ]
				}

			}
, 			{
				"patchline" : 				{
					"destination" : [ "obj-22", 6 ],
					"source" : [ "obj-31", 5 ]
				}

			}
, 			{
				"patchline" : 				{
					"destination" : [ "obj-22", 5 ],
					"source" : [ "obj-31", 4 ]
				}

			}
, 			{
				"patchline" : 				{
					"destination" : [ "obj-22", 4 ],
					"source" : [ "obj-31", 3 ]
				}

			}
, 			{
				"patchline" : 				{
					"destination" : [ "obj-22", 3 ],
					"source" : [ "obj-31", 2 ]
				}

			}
, 			{
				"patchline" : 				{
					"destination" : [ "obj-22", 2 ],
					"source" : [ "obj-31", 1 ]
				}

			}
, 			{
				"patchline" : 				{
					"destination" : [ "obj-22", 1 ],
					"source" : [ "obj-31", 0 ]
				}

			}
, 			{
				"patchline" : 				{
					"destination" : [ "obj-20", 8 ],
					"source" : [ "obj-37", 7 ]
				}

			}
, 			{
				"patchline" : 				{
					"destination" : [ "obj-20", 7 ],
					"source" : [ "obj-37", 6 ]
				}

			}
, 			{
				"patchline" : 				{
					"destination" : [ "obj-20", 6 ],
					"source" : [ "obj-37", 5 ]
				}

			}
, 			{
				"patchline" : 				{
					"destination" : [ "obj-20", 5 ],
					"source" : [ "obj-37", 4 ]
				}

			}
, 			{
				"patchline" : 				{
					"destination" : [ "obj-20", 4 ],
					"source" : [ "obj-37", 3 ]
				}

			}
, 			{
				"patchline" : 				{
					"destination" : [ "obj-20", 3 ],
					"source" : [ "obj-37", 2 ]
				}

			}
, 			{
				"patchline" : 				{
					"destination" : [ "obj-20", 2 ],
					"source" : [ "obj-37", 1 ]
				}

			}
, 			{
				"patchline" : 				{
					"destination" : [ "obj-20", 1 ],
					"source" : [ "obj-37", 0 ]
				}

			}
, 			{
				"patchline" : 				{
					"destination" : [ "obj-11", 0 ],
					"midpoints" : [ 135.500003308057785, 43.000000879709262, 515.500003308057785, 43.000000879709262 ],
					"order" : 1,
					"source" : [ "obj-39", 0 ]
				}

			}
, 			{
				"patchline" : 				{
					"destination" : [ "obj-23", 0 ],
					"midpoints" : [ 135.500003308057785, 36.000000879709262, 892.500003308057785, 36.000000879709262 ],
					"order" : 0,
					"source" : [ "obj-39", 0 ]
				}

			}
, 			{
				"patchline" : 				{
					"destination" : [ "obj-55", 0 ],
					"order" : 2,
					"source" : [ "obj-39", 0 ]
				}

			}
, 			{
				"patchline" : 				{
					"destination" : [ "obj-2", 0 ],
					"source" : [ "obj-4", 0 ]
				}

			}
, 			{
				"patchline" : 				{
					"destination" : [ "obj-21", 8 ],
					"source" : [ "obj-41", 7 ]
				}

			}
, 			{
				"patchline" : 				{
					"destination" : [ "obj-21", 7 ],
					"source" : [ "obj-41", 6 ]
				}

			}
, 			{
				"patchline" : 				{
					"destination" : [ "obj-21", 6 ],
					"source" : [ "obj-41", 5 ]
				}

			}
, 			{
				"patchline" : 				{
					"destination" : [ "obj-21", 5 ],
					"source" : [ "obj-41", 4 ]
				}

			}
, 			{
				"patchline" : 				{
					"destination" : [ "obj-21", 4 ],
					"source" : [ "obj-41", 3 ]
				}

			}
, 			{
				"patchline" : 				{
					"destination" : [ "obj-21", 3 ],
					"source" : [ "obj-41", 2 ]
				}

			}
, 			{
				"patchline" : 				{
					"destination" : [ "obj-21", 2 ],
					"source" : [ "obj-41", 1 ]
				}

			}
, 			{
				"patchline" : 				{
					"destination" : [ "obj-21", 1 ],
					"source" : [ "obj-41", 0 ]
				}

			}
, 			{
				"patchline" : 				{
					"destination" : [ "obj-44", 0 ],
					"source" : [ "obj-43", 0 ]
				}

			}
, 			{
				"patchline" : 				{
					"destination" : [ "obj-2", 0 ],
					"order" : 1,
					"source" : [ "obj-44", 0 ]
				}

			}
, 			{
				"patchline" : 				{
					"destination" : [ "obj-52", 0 ],
					"order" : 0,
					"source" : [ "obj-44", 0 ]
				}

			}
, 			{
				"patchline" : 				{
					"destination" : [ "obj-65", 1 ],
					"source" : [ "obj-49", 0 ]
				}

			}
, 			{
				"patchline" : 				{
					"destination" : [ "obj-1", 0 ],
					"source" : [ "obj-5", 0 ]
				}

			}
, 			{
				"patchline" : 				{
					"destination" : [ "obj-1", 0 ],
					"source" : [ "obj-50", 0 ]
				}

			}
, 			{
				"patchline" : 				{
					"destination" : [ "obj-49", 0 ],
					"order" : 2,
					"source" : [ "obj-51", 0 ]
				}

			}
, 			{
				"patchline" : 				{
					"destination" : [ "obj-53", 0 ],
					"order" : 1,
					"source" : [ "obj-51", 0 ]
				}

			}
, 			{
				"patchline" : 				{
					"destination" : [ "obj-68", 0 ],
					"order" : 0,
					"source" : [ "obj-51", 0 ]
				}

			}
, 			{
				"patchline" : 				{
					"destination" : [ "obj-65", 0 ],
					"source" : [ "obj-53", 0 ]
				}

			}
, 			{
				"patchline" : 				{
					"destination" : [ "obj-50", 0 ],
					"source" : [ "obj-54", 0 ]
				}

			}
, 			{
				"patchline" : 				{
					"destination" : [ "obj-54", 0 ],
					"source" : [ "obj-55", 0 ]
				}

			}
, 			{
				"patchline" : 				{
					"destination" : [ "obj-51", 0 ],
					"source" : [ "obj-57", 0 ]
				}

			}
, 			{
				"patchline" : 				{
					"destination" : [ "obj-67", 0 ],
					"source" : [ "obj-65", 0 ]
				}

			}
, 			{
				"patchline" : 				{
					"destination" : [ "obj-46", 1 ],
					"order" : 0,
					"source" : [ "obj-67", 0 ]
				}

			}
, 			{
				"patchline" : 				{
					"destination" : [ "obj-46", 0 ],
					"order" : 1,
					"source" : [ "obj-67", 0 ]
				}

			}
, 			{
				"patchline" : 				{
					"destination" : [ "obj-65", 2 ],
					"source" : [ "obj-68", 0 ]
				}

			}
, 			{
				"patchline" : 				{
					"destination" : [ "obj-11", 1 ],
					"source" : [ "obj-8", 0 ]
				}

			}
 ],
		"parameters" : 		{
			"obj-20::obj-111" : [ "Use dest[1]", "textbutton[4]", 0 ],
			"obj-20::obj-113" : [ "Use src[1]", "textbutton[3]", 0 ],
			"obj-20::obj-121" : [ "Erase[1]", "brightness", 0 ],
			"obj-20::obj-128" : [ "range[14]", "range", 0 ],
			"obj-20::obj-150" : [ "Y crop[1]", "pictctrl[1]", 0 ],
			"obj-20::obj-151" : [ "X crop[1]", "pictctrl[1]", 0 ],
			"obj-20::obj-189" : [ "Y output[1]", "rslider[2]", 0 ],
			"obj-20::obj-190" : [ "X output[1]", "rslider[3]", 0 ],
			"obj-20::obj-200" : [ "pictctrl[14]", "pictctrl[1]", 0 ],
			"obj-20::obj-204" : [ "pictctrl[13]", "pictctrl[1]", 0 ],
			"obj-20::obj-206" : [ "pictctrl[6]", "pictctrl[1]", 0 ],
			"obj-20::obj-209" : [ "pictctrl[11]", "pictctrl[1]", 0 ],
			"obj-20::obj-28" : [ "pictctrl[40]", "pictctrl[1]", 0 ],
			"obj-20::obj-49" : [ "pictctrl[7]", "pictctrl[1]", 0 ],
			"obj-20::obj-51" : [ "pictctrl[12]", "pictctrl[1]", 0 ],
			"obj-20::obj-7" : [ "pictctrl[10]", "pictctrl[1]", 0 ],
			"obj-20::obj-77" : [ "pictctrl[8]", "pictctrl[1]", 0 ],
			"obj-20::obj-8" : [ "range[13]", "range", 0 ],
			"obj-20::obj-89" : [ "pictctrl[9]", "pictctrl[1]", 0 ],
			"obj-21::obj-111" : [ "Use dest[2]", "textbutton[4]", 0 ],
			"obj-21::obj-113" : [ "Use src[2]", "textbutton[3]", 0 ],
			"obj-21::obj-121" : [ "Erase[2]", "brightness", 0 ],
			"obj-21::obj-128" : [ "range[7]", "range", 0 ],
			"obj-21::obj-150" : [ "Y crop[2]", "pictctrl[1]", 0 ],
			"obj-21::obj-151" : [ "X crop[2]", "pictctrl[1]", 0 ],
			"obj-21::obj-189" : [ "Y output[2]", "rslider[2]", 0 ],
			"obj-21::obj-190" : [ "X output[2]", "rslider[3]", 0 ],
			"obj-21::obj-200" : [ "pictctrl[16]", "pictctrl[1]", 0 ],
			"obj-21::obj-204" : [ "pictctrl[47]", "pictctrl[1]", 0 ],
			"obj-21::obj-206" : [ "pictctrl[46]", "pictctrl[1]", 0 ],
			"obj-21::obj-209" : [ "pictctrl[44]", "pictctrl[1]", 0 ],
			"obj-21::obj-28" : [ "pictctrl[42]", "pictctrl[1]", 0 ],
			"obj-21::obj-49" : [ "pictctrl[17]", "pictctrl[1]", 0 ],
			"obj-21::obj-51" : [ "pictctrl[41]", "pictctrl[1]", 0 ],
			"obj-21::obj-7" : [ "pictctrl[15]", "pictctrl[1]", 0 ],
			"obj-21::obj-77" : [ "pictctrl[43]", "pictctrl[1]", 0 ],
			"obj-21::obj-8" : [ "range[6]", "range", 0 ],
			"obj-21::obj-89" : [ "pictctrl[45]", "pictctrl[1]", 0 ],
			"obj-22::obj-111" : [ "Use dest", "textbutton[4]", 0 ],
			"obj-22::obj-113" : [ "Use src", "textbutton[3]", 0 ],
			"obj-22::obj-121" : [ "Erase", "brightness", 0 ],
			"obj-22::obj-128" : [ "range[24]", "range", 0 ],
			"obj-22::obj-150" : [ "Y crop", "pictctrl[1]", 0 ],
			"obj-22::obj-151" : [ "X crop", "pictctrl[1]", 0 ],
			"obj-22::obj-189" : [ "Y output", "rslider[2]", 0 ],
			"obj-22::obj-190" : [ "X output", "rslider[3]", 0 ],
			"obj-22::obj-200" : [ "pictctrl[39]", "pictctrl[1]", 0 ],
			"obj-22::obj-204" : [ "pictctrl[35]", "pictctrl[1]", 0 ],
			"obj-22::obj-206" : [ "pictctrl[21]", "pictctrl[1]", 0 ],
			"obj-22::obj-209" : [ "pictctrl[38]", "pictctrl[1]", 0 ],
			"obj-22::obj-28" : [ "pictctrl[22]", "pictctrl[1]", 0 ],
			"obj-22::obj-49" : [ "pictctrl[34]", "pictctrl[1]", 0 ],
			"obj-22::obj-51" : [ "pictctrl[37]", "pictctrl[1]", 0 ],
			"obj-22::obj-7" : [ "pictctrl[23]", "pictctrl[1]", 0 ],
			"obj-22::obj-77" : [ "pictctrl[29]", "pictctrl[1]", 0 ],
			"obj-22::obj-8" : [ "range[5]", "range", 0 ],
			"obj-22::obj-89" : [ "pictctrl[36]", "pictctrl[1]", 0 ],
			"obj-43::obj-3" : [ "range[4]", "range", 0 ],
			"obj-43::obj-39" : [ "umenu[10]", "umenu", 0 ],
			"obj-43::obj-51" : [ "pictctrl[18]", "pictctrl[1]", 0 ],
			"obj-44::obj-3" : [ "range[8]", "range", 0 ],
			"obj-44::obj-39" : [ "umenu[1]", "umenu", 0 ],
			"obj-44::obj-51" : [ "pictctrl[19]", "pictctrl[1]", 0 ],
			"obj-46::obj-22" : [ "Mute", "Mute", 0 ],
			"obj-46::obj-52" : [ "Level", "Level", 0 ],
			"obj-46::obj-55" : [ "DSP", "DSP", 0 ],
			"obj-46::obj-56" : [ "OutputChannel", "OutputChannel", 0 ],
			"obj-49::obj-14::obj-2" : [ "pastebang[1]", "pastebang", 0 ],
			"obj-49::obj-20" : [ "mute[2]", "mute", 0 ],
			"obj-49::obj-28" : [ "Duration[1]", "Duration", 0 ],
			"obj-49::obj-48" : [ "Mype[1]", "Mype", 0 ],
			"obj-49::obj-9" : [ "Note[1]", "Note", 0 ],
			"obj-51::obj-101" : [ "reset", "reset", 0 ],
			"obj-51::obj-12" : [ "Mute[1]", "Mute", 0 ],
			"obj-51::obj-22" : [ "clear", "clear", 0 ],
			"obj-51::obj-221" : [ "drummapnote", "note", 0 ],
			"obj-51::obj-222" : [ "drummapnote[1]", "note", 0 ],
			"obj-51::obj-223" : [ "drummapnote[2]", "note", 0 ],
			"obj-51::obj-224" : [ "drummapnote[3]", "note", 0 ],
			"obj-51::obj-225" : [ "drummapnote[4]", "note", 0 ],
			"obj-51::obj-226" : [ "drummapnote[5]", "note", 0 ],
			"obj-51::obj-227" : [ "drummapnote[6]", "note", 0 ],
			"obj-51::obj-228" : [ "drummapnote[7]", "note", 0 ],
			"obj-51::obj-229" : [ "drummapnote[8]", "note", 0 ],
			"obj-51::obj-230" : [ "drummapnote[9]", "note", 0 ],
			"obj-51::obj-231" : [ "drummapnote[10]", "note", 0 ],
			"obj-51::obj-232" : [ "drummapnote[11]", "note", 0 ],
			"obj-51::obj-233" : [ "drummapnote[12]", "note", 0 ],
			"obj-51::obj-234" : [ "drummapnote[13]", "note", 0 ],
			"obj-51::obj-235" : [ "drummapnote[14]", "note", 0 ],
			"obj-51::obj-236" : [ "drummapnote[15]", "note", 0 ],
			"obj-51::obj-37" : [ "refresh", "refresh", 0 ],
			"obj-51::obj-5" : [ "drums", "drums", 0 ],
			"obj-51::obj-50" : [ "advance", "advance", 0 ],
			"obj-51::obj-73" : [ "start", "start", 0 ],
			"obj-51::obj-84" : [ "end", "end", 0 ],
			"obj-53::obj-14::obj-2" : [ "pastebang", "pastebang", 0 ],
			"obj-53::obj-20" : [ "mute", "mute", 0 ],
			"obj-53::obj-28" : [ "Duration", "Duration", 0 ],
			"obj-53::obj-48" : [ "Mype", "Mype", 0 ],
			"obj-53::obj-9" : [ "Note", "Note", 0 ],
			"obj-57::obj-20" : [ "enable", "enable", 0 ],
			"obj-57::obj-27" : [ "led", "led", 0 ],
			"obj-57::obj-29" : [ "mute[1]", "mute", 0 ],
			"obj-57::obj-34" : [ "Pulse", "Pulse", 0 ],
			"obj-57::obj-476" : [ "swing.amt", "swing.amt", 0 ],
			"obj-57::obj-477" : [ "swing.base", "swing.base", 0 ],
			"obj-57::obj-478" : [ "swing", "swing", 0 ],
			"obj-65::obj-29" : [ "3", "3", 0 ],
			"obj-65::obj-32" : [ "2", "2", 0 ],
			"obj-65::obj-33" : [ "4", "4", 0 ],
			"obj-65::obj-37" : [ "Mute[2]", "Mute", 0 ],
			"obj-65::obj-39" : [ "1", "1", 0 ],
			"obj-65::obj-49" : [ "MuteCh1", "MuteCh1", 0 ],
			"obj-65::obj-58" : [ "MuteCh2", "MuteCh2", 0 ],
			"obj-65::obj-64" : [ "MuteCh3", "MuteCh3", 0 ],
			"obj-65::obj-70" : [ "MuteCh4", "MuteCh4", 0 ],
			"obj-67::obj-20" : [ "Freq", "Freq", 0 ],
			"obj-67::obj-22" : [ "TimeMode", "TimeMode", 1 ],
			"obj-67::obj-23" : [ "Offset", "Offset", 0 ],
			"obj-67::obj-51" : [ "CV2", "CV2", 0 ],
			"obj-67::obj-54" : [ "CV1", "CV1", 0 ],
			"obj-67::obj-55" : [ "power", "power", 0 ],
			"obj-67::obj-63" : [ "CV3", "CV3", 0 ],
			"obj-67::obj-68" : [ "Res", "Res", 0 ],
			"obj-67::obj-95" : [ "ResCV", "CV", 0 ],
			"obj-68::obj-14::obj-2" : [ "pastebang[2]", "pastebang", 0 ],
			"obj-68::obj-20" : [ "mute[3]", "mute", 0 ],
			"obj-68::obj-28" : [ "Duration[2]", "Duration", 0 ],
			"obj-68::obj-48" : [ "Mype[2]", "Mype", 0 ],
			"obj-68::obj-9" : [ "Note[2]", "Note", 0 ],
			"obj-69::obj-1" : [ "Sync", "Sync", 0 ],
			"obj-69::obj-129" : [ "Tempo", "Tempo", 0 ],
			"obj-69::obj-30" : [ "sync_source", "sync_source", 0 ],
			"obj-69::obj-76" : [ "Transport", "Transport", 0 ],
			"parameterbanks" : 			{

			}
,
			"parameter_overrides" : 			{
				"obj-20::obj-128" : 				{
					"parameter_longname" : "range[14]"
				}
,
				"obj-20::obj-200" : 				{
					"parameter_longname" : "pictctrl[14]"
				}
,
				"obj-20::obj-204" : 				{
					"parameter_longname" : "pictctrl[13]"
				}
,
				"obj-20::obj-206" : 				{
					"parameter_longname" : "pictctrl[6]"
				}
,
				"obj-20::obj-209" : 				{
					"parameter_longname" : "pictctrl[11]"
				}
,
				"obj-20::obj-28" : 				{
					"parameter_longname" : "pictctrl[40]"
				}
,
				"obj-20::obj-49" : 				{
					"parameter_longname" : "pictctrl[7]"
				}
,
				"obj-20::obj-51" : 				{
					"parameter_longname" : "pictctrl[12]"
				}
,
				"obj-20::obj-7" : 				{
					"parameter_longname" : "pictctrl[10]"
				}
,
				"obj-20::obj-77" : 				{
					"parameter_longname" : "pictctrl[8]"
				}
,
				"obj-20::obj-89" : 				{
					"parameter_longname" : "pictctrl[9]"
				}
,
				"obj-21::obj-128" : 				{
					"parameter_longname" : "range[7]"
				}
,
				"obj-21::obj-200" : 				{
					"parameter_longname" : "pictctrl[16]"
				}
,
				"obj-21::obj-204" : 				{
					"parameter_longname" : "pictctrl[47]"
				}
,
				"obj-21::obj-206" : 				{
					"parameter_longname" : "pictctrl[46]"
				}
,
				"obj-21::obj-209" : 				{
					"parameter_longname" : "pictctrl[44]"
				}
,
				"obj-21::obj-28" : 				{
					"parameter_longname" : "pictctrl[42]"
				}
,
				"obj-21::obj-49" : 				{
					"parameter_longname" : "pictctrl[17]"
				}
,
				"obj-21::obj-51" : 				{
					"parameter_longname" : "pictctrl[41]"
				}
,
				"obj-21::obj-7" : 				{
					"parameter_longname" : "pictctrl[15]"
				}
,
				"obj-21::obj-77" : 				{
					"parameter_longname" : "pictctrl[43]"
				}
,
				"obj-21::obj-89" : 				{
					"parameter_longname" : "pictctrl[45]"
				}
,
				"obj-43::obj-51" : 				{
					"parameter_longname" : "pictctrl[18]"
				}
,
				"obj-44::obj-39" : 				{
					"parameter_longname" : "umenu[1]"
				}
,
				"obj-44::obj-51" : 				{
					"parameter_longname" : "pictctrl[19]"
				}
,
				"obj-49::obj-14::obj-2" : 				{
					"parameter_longname" : "pastebang[1]"
				}
,
				"obj-49::obj-20" : 				{
					"parameter_longname" : "mute[2]"
				}
,
				"obj-49::obj-28" : 				{
					"parameter_longname" : "Duration[1]"
				}
,
				"obj-49::obj-48" : 				{
					"parameter_longname" : "Mype[1]"
				}
,
				"obj-49::obj-9" : 				{
					"parameter_longname" : "Note[1]"
				}
,
				"obj-51::obj-12" : 				{
					"parameter_longname" : "Mute[1]"
				}
,
				"obj-57::obj-29" : 				{
					"parameter_longname" : "mute[1]"
				}
,
				"obj-65::obj-37" : 				{
					"parameter_longname" : "Mute[2]"
				}
,
				"obj-68::obj-14::obj-2" : 				{
					"parameter_longname" : "pastebang[2]"
				}
,
				"obj-68::obj-20" : 				{
					"parameter_longname" : "mute[3]"
				}
,
				"obj-68::obj-28" : 				{
					"parameter_longname" : "Duration[2]"
				}
,
				"obj-68::obj-48" : 				{
					"parameter_longname" : "Mype[2]"
				}
,
				"obj-68::obj-9" : 				{
					"parameter_longname" : "Note[2]"
				}

			}
,
			"inherited_shortname" : 1
		}
,
		"dependency_cache" : [ 			{
				"name" : "gran-synth[3].maxsnap",
				"bootpath" : "~/Documents/Max 8/Snapshots",
				"patcherrelativepath" : "../../Documents/Max 8/Snapshots",
				"type" : "mx@s",
				"implicit" : 1
			}
, 			{
				"name" : "vz.croppr.maxpat",
				"bootpath" : "C74:/packages/Vizzie/patchers",
				"type" : "JSON",
				"implicit" : 1
			}
, 			{
				"name" : "vzgl-pwindow.maxpat",
				"bootpath" : "C74:/packages/Vizzie/patchers",
				"type" : "JSON",
				"implicit" : 1
			}
, 			{
				"name" : "video-handler.maxpat",
				"bootpath" : "C74:/packages/Vizzie/patchers",
				"type" : "JSON",
				"implicit" : 1
			}
, 			{
				"name" : "data-handler.maxpat",
				"bootpath" : "C74:/packages/Vizzie/patchers",
				"type" : "JSON",
				"implicit" : 1
			}
, 			{
				"name" : "vzgl-object.maxpat",
				"bootpath" : "C74:/packages/Vizzie/patchers",
				"type" : "JSON",
				"implicit" : 1
			}
, 			{
				"name" : "vizzie-global.js",
				"bootpath" : "C74:/packages/Vizzie/code",
				"type" : "TEXT",
				"implicit" : 1
			}
, 			{
				"name" : "srcdimcrop.genjit",
				"bootpath" : "~/Library/Application Support/Cycling '74/Max 8/Examples/jitter-examples/gen",
				"patcherrelativepath" : "../../Library/Application Support/Cycling '74/Max 8/Examples/jitter-examples/gen",
				"type" : "gJIT",
				"implicit" : 1
			}
, 			{
				"name" : "dstdimcrop.genjit",
				"bootpath" : "~/Library/Application Support/Cycling '74/Max 8/Examples/jitter-examples/gen",
				"patcherrelativepath" : "../../Library/Application Support/Cycling '74/Max 8/Examples/jitter-examples/gen",
				"type" : "gJIT",
				"implicit" : 1
			}
, 			{
				"name" : "vz.oper8r.maxpat",
				"bootpath" : "C74:/packages/Vizzie/patchers",
				"type" : "JSON",
				"implicit" : 1
			}
, 			{
				"name" : "vzgl-routemat.maxpat",
				"bootpath" : "C74:/packages/Vizzie/patchers",
				"type" : "JSON",
				"implicit" : 1
			}
, 			{
				"name" : "vzgl-disable.maxpat",
				"bootpath" : "C74:/packages/Vizzie/patchers",
				"type" : "JSON",
				"implicit" : 1
			}
, 			{
				"name" : "vzgl-routegl.maxpat",
				"bootpath" : "C74:/packages/Vizzie/patchers",
				"type" : "JSON",
				"implicit" : 1
			}
, 			{
				"name" : "bp.Stereo.maxpat",
				"bootpath" : "C74:/packages/BEAP/clippings/BEAP/Output",
				"type" : "JSON",
				"implicit" : 1
			}
, 			{
				"name" : "bp.Drum Sequencer.maxpat",
				"bootpath" : "C74:/packages/BEAP/clippings/BEAP/MIDI",
				"type" : "JSON",
				"implicit" : 1
			}
, 			{
				"name" : "bp.Cell-MIDI.maxpat",
				"bootpath" : "C74:/packages/BEAP/clippings/BEAP/MIDI",
				"type" : "JSON",
				"implicit" : 1
			}
, 			{
				"name" : "pastebang.maxpat",
				"bootpath" : "C74:/packages/BEAP/misc",
				"type" : "JSON",
				"implicit" : 1
			}
, 			{
				"name" : "bp.Metro Pulse.maxpat",
				"bootpath" : "C74:/packages/BEAP/clippings/BEAP/MIDI",
				"type" : "JSON",
				"implicit" : 1
			}
, 			{
				"name" : "swingCalc.js",
				"bootpath" : "C74:/packages/BEAP/misc",
				"type" : "TEXT",
				"implicit" : 1
			}
, 			{
				"name" : "bp.Audio Mixer.maxpat",
				"bootpath" : "C74:/packages/BEAP/clippings/BEAP/Mixers",
				"type" : "JSON",
				"implicit" : 1
			}
, 			{
				"name" : "bp.LPF.maxpat",
				"bootpath" : "C74:/packages/BEAP/clippings/BEAP/Filter",
				"type" : "JSON",
				"implicit" : 1
			}
, 			{
				"name" : "bp.Global Transport.maxpat",
				"bootpath" : "C74:/packages/BEAP/clippings/BEAP/Sequencer",
				"type" : "JSON",
				"implicit" : 1
			}
 ],
		"autosave" : 0,
		"snapshot" : 		{
			"filetype" : "C74Snapshot",
			"version" : 2,
			"minorversion" : 0,
			"name" : "snapshotlist",
			"origin" : "jpatcher",
			"type" : "list",
			"subtype" : "Undefined",
			"embed" : 1,
			"snapshot" : 			{
				"valuedictionary" : 				{
					"parameter_values" : 					{
						"1" : -7.370078740157538,
						"2" : 0.0,
						"3" : -9.070866141732296,
						"4" : -72.0,
						"CV1" : 0.0,
						"CV2" : 0.0,
						"CV3" : 0.0,
						"DSP" : 1.0,
						"Freq" : 6766.246564310111353,
						"Level" : -14.494603186747888,
						"Mute" : 0.0,
						"MuteCh1" : 0.0,
						"MuteCh2" : 0.0,
						"MuteCh3" : 0.0,
						"MuteCh4" : 0.0,
						"Mute[1]" : 0.0,
						"Mute[2]" : 0.0,
						"Mype" : 0.0,
						"Mype[1]" : 0.0,
						"Mype[2]" : 0.0,
						"Note" : 60.0,
						"Note[1]" : 59.0,
						"Note[2]" : 57.0,
						"Offset" : 64.0,
						"OutputChannel" : 0.0,
						"Res" : 0.0,
						"ResCV" : 0.0,
						"Sync" : 0.0,
						"Tempo" : 80.0,
						"Transport" : 1.0,
						"drummapnote" : 60.0,
						"drummapnote[10]" : 44.0,
						"drummapnote[11]" : 46.0,
						"drummapnote[12]" : 36.0,
						"drummapnote[13]" : 38.0,
						"drummapnote[14]" : 29.0,
						"drummapnote[15]" : 31.0,
						"drummapnote[1]" : 59.0,
						"drummapnote[2]" : 55.0,
						"drummapnote[3]" : 57.0,
						"drummapnote[4]" : 48.0,
						"drummapnote[5]" : 50.0,
						"drummapnote[6]" : 52.0,
						"drummapnote[7]" : 53.0,
						"drummapnote[8]" : 33.0,
						"drummapnote[9]" : 42.0,
						"enable" : 1.0,
						"end" : 32.0,
						"mute" : 0.0,
						"mute[1]" : 0.0,
						"mute[2]" : 0.0,
						"mute[3]" : 0.0,
						"pictctrl[10]" : 1.0,
						"pictctrl[11]" : 1.0,
						"pictctrl[12]" : 1.0,
						"pictctrl[13]" : 1.0,
						"pictctrl[14]" : 1.0,
						"pictctrl[15]" : 1.0,
						"pictctrl[16]" : 1.0,
						"pictctrl[17]" : 1.0,
						"pictctrl[18]" : 1.0,
						"pictctrl[19]" : 1.0,
						"pictctrl[21]" : 1.0,
						"pictctrl[22]" : 1.0,
						"pictctrl[23]" : 1.0,
						"pictctrl[29]" : 1.0,
						"pictctrl[34]" : 1.0,
						"pictctrl[35]" : 1.0,
						"pictctrl[36]" : 1.0,
						"pictctrl[37]" : 1.0,
						"pictctrl[38]" : 1.0,
						"pictctrl[39]" : 1.0,
						"pictctrl[40]" : 1.0,
						"pictctrl[41]" : 1.0,
						"pictctrl[42]" : 1.0,
						"pictctrl[43]" : 1.0,
						"pictctrl[44]" : 1.0,
						"pictctrl[45]" : 1.0,
						"pictctrl[46]" : 1.0,
						"pictctrl[47]" : 1.0,
						"pictctrl[6]" : 1.0,
						"pictctrl[7]" : 1.0,
						"pictctrl[8]" : 1.0,
						"pictctrl[9]" : 1.0,
						"power" : 0.0,
						"range[14]" : 1.0,
						"range[24]" : 1.0,
						"range[7]" : 1.0,
						"start" : 1.0,
						"swing" : 0.0,
						"swing.amt" : 15.0,
						"swing.base" : 1.0,
						"umenu[10]" : 3.0,
						"umenu[1]" : 3.0,
						"TimeMode" : 1.0,
						"blob" : 						{
							"Erase" : [ 1 ],
							"Erase[1]" : [ 1 ],
							"Erase[2]" : [ 1 ],
							"Pulse" : [ "16nd" ],
							"Use dest" : [ 1.0 ],
							"Use dest[1]" : [ 1.0 ],
							"Use dest[2]" : [ 1.0 ],
							"Use src" : [ 1 ],
							"Use src[1]" : [ 1 ],
							"Use src[2]" : [ 1 ],
							"X crop" : [ 0.33, 0.66 ],
							"X crop[1]" : [ 0.33, 0.66 ],
							"X crop[2]" : [ 0.33, 0.66 ],
							"X output" : [ 0.0, 0.33 ],
							"X output[1]" : [ 0.33, 0.66 ],
							"X output[2]" : [ 0.66, 1.0 ],
							"Y crop" : [ 0.0, 1.0 ],
							"Y crop[1]" : [ 0.0, 1.0 ],
							"Y crop[2]" : [ 0.0, 1.0 ],
							"Y output" : [ 0.0, 1.0 ],
							"Y output[1]" : [ 0.0, 1.0 ],
							"Y output[2]" : [ 0.0, 1.0 ],
							"drums" : [ 3, 32, 16, 0, 16, 0, 1, 4000, 5000, 5002, 8000, 12000, 13000, 16000, 20000, 21000, 21002, 24000, 28000, 29000, 29002, 2, 2, 2, 2, 2, 2, 2, 2, 2, 2, 2, 2, 2, 2, 2, 2, 2, 2, 2, 2, 2, 2, 2, 2, 2, 2, 2, 2, 2, 2, 2, 2 ],
							"range[13]" : [ 1 ],
							"range[4]" : [ 1 ],
							"range[5]" : [ 1 ],
							"range[6]" : [ 1 ],
							"range[8]" : [ 1 ],
							"sync_source" : [ 0 ]
						}

					}

				}

			}
,
			"snapshotlist" : 			{
				"current_snapshot" : 0,
				"entries" : [ 					{
						"filetype" : "C74Snapshot",
						"version" : 2,
						"minorversion" : 0,
						"name" : "final",
						"origin" : "class18-patch2-granular-synthesis",
						"type" : "patcher",
						"subtype" : "Undefined",
						"embed" : 1,
						"snapshot" : 						{
							"valuedictionary" : 							{
								"parameter_values" : 								{
									"1" : -7.370078740157538,
									"2" : 0.0,
									"3" : -9.070866141732296,
									"4" : -72.0,
									"CV1" : 0.0,
									"CV2" : 0.0,
									"CV3" : 0.0,
									"DSP" : 1.0,
									"Freq" : 6766.246564310111353,
									"Level" : -14.494603186747888,
									"Mute" : 0.0,
									"MuteCh1" : 0.0,
									"MuteCh2" : 0.0,
									"MuteCh3" : 0.0,
									"MuteCh4" : 0.0,
									"Mute[1]" : 0.0,
									"Mute[2]" : 0.0,
									"Mype" : 0.0,
									"Mype[1]" : 0.0,
									"Mype[2]" : 0.0,
									"Note" : 60.0,
									"Note[1]" : 59.0,
									"Note[2]" : 57.0,
									"Offset" : 64.0,
									"OutputChannel" : 0.0,
									"Res" : 0.0,
									"ResCV" : 0.0,
									"Sync" : 0.0,
									"Tempo" : 80.0,
									"Transport" : 1.0,
									"drummapnote" : 60.0,
									"drummapnote[10]" : 44.0,
									"drummapnote[11]" : 46.0,
									"drummapnote[12]" : 36.0,
									"drummapnote[13]" : 38.0,
									"drummapnote[14]" : 29.0,
									"drummapnote[15]" : 31.0,
									"drummapnote[1]" : 59.0,
									"drummapnote[2]" : 55.0,
									"drummapnote[3]" : 57.0,
									"drummapnote[4]" : 48.0,
									"drummapnote[5]" : 50.0,
									"drummapnote[6]" : 52.0,
									"drummapnote[7]" : 53.0,
									"drummapnote[8]" : 33.0,
									"drummapnote[9]" : 42.0,
									"enable" : 1.0,
									"end" : 32.0,
									"mute" : 0.0,
									"mute[1]" : 0.0,
									"mute[2]" : 0.0,
									"mute[3]" : 0.0,
									"pictctrl[10]" : 1.0,
									"pictctrl[11]" : 1.0,
									"pictctrl[12]" : 1.0,
									"pictctrl[13]" : 1.0,
									"pictctrl[14]" : 1.0,
									"pictctrl[15]" : 1.0,
									"pictctrl[16]" : 1.0,
									"pictctrl[17]" : 1.0,
									"pictctrl[18]" : 1.0,
									"pictctrl[19]" : 1.0,
									"pictctrl[21]" : 1.0,
									"pictctrl[22]" : 1.0,
									"pictctrl[23]" : 1.0,
									"pictctrl[29]" : 1.0,
									"pictctrl[34]" : 1.0,
									"pictctrl[35]" : 1.0,
									"pictctrl[36]" : 1.0,
									"pictctrl[37]" : 1.0,
									"pictctrl[38]" : 1.0,
									"pictctrl[39]" : 1.0,
									"pictctrl[40]" : 1.0,
									"pictctrl[41]" : 1.0,
									"pictctrl[42]" : 1.0,
									"pictctrl[43]" : 1.0,
									"pictctrl[44]" : 1.0,
									"pictctrl[45]" : 1.0,
									"pictctrl[46]" : 1.0,
									"pictctrl[47]" : 1.0,
									"pictctrl[6]" : 1.0,
									"pictctrl[7]" : 1.0,
									"pictctrl[8]" : 1.0,
									"pictctrl[9]" : 1.0,
									"power" : 0.0,
									"range[14]" : 1.0,
									"range[24]" : 1.0,
									"range[7]" : 1.0,
									"start" : 1.0,
									"swing" : 0.0,
									"swing.amt" : 15.0,
									"swing.base" : 1.0,
									"umenu[10]" : 3.0,
									"umenu[1]" : 3.0,
									"TimeMode" : 1.0,
									"blob" : 									{
										"Erase" : [ 1 ],
										"Erase[1]" : [ 1 ],
										"Erase[2]" : [ 1 ],
										"Pulse" : [ "16nd" ],
										"Use dest" : [ 1.0 ],
										"Use dest[1]" : [ 1.0 ],
										"Use dest[2]" : [ 1.0 ],
										"Use src" : [ 1 ],
										"Use src[1]" : [ 1 ],
										"Use src[2]" : [ 1 ],
										"X crop" : [ 0.33, 0.66 ],
										"X crop[1]" : [ 0.33, 0.66 ],
										"X crop[2]" : [ 0.33, 0.66 ],
										"X output" : [ 0.0, 0.33 ],
										"X output[1]" : [ 0.33, 0.66 ],
										"X output[2]" : [ 0.66, 1.0 ],
										"Y crop" : [ 0.0, 1.0 ],
										"Y crop[1]" : [ 0.0, 1.0 ],
										"Y crop[2]" : [ 0.0, 1.0 ],
										"Y output" : [ 0.0, 1.0 ],
										"Y output[1]" : [ 0.0, 1.0 ],
										"Y output[2]" : [ 0.0, 1.0 ],
										"drums" : [ 3, 32, 16, 0, 16, 0, 1, 4000, 5000, 5002, 8000, 12000, 13000, 16000, 20000, 21000, 21002, 24000, 28000, 29000, 29002, 2, 2, 2, 2, 2, 2, 2, 2, 2, 2, 2, 2, 2, 2, 2, 2, 2, 2, 2, 2, 2, 2, 2, 2, 2, 2, 2, 2, 2, 2, 2, 2 ],
										"range[13]" : [ 1 ],
										"range[4]" : [ 1 ],
										"range[5]" : [ 1 ],
										"range[6]" : [ 1 ],
										"range[8]" : [ 1 ],
										"sync_source" : [ 0 ]
									}

								}

							}

						}
,
						"fileref" : 						{
							"name" : "gran-synth[3]",
							"filename" : "gran-synth[3].maxsnap",
							"filepath" : "~/Documents/Max 8/Snapshots",
							"filepos" : -1,
							"snapshotfileid" : "c0b04aae75f9a121ce075c9c8706eea2"
						}

					}
 ]
			}

		}

	}

}
